PathFileType	4	(X/Y/Z)	C:\Users\Basilio\Documents\Thesis Gigler\squatting_fais\c3dfiles\040\SLS_pre_front3\markers_experimental.trc
DataRate	CameraRate	NumFrames	NumMarkers	Units	OrigDataRate	OrigDataStartFrame	OrigNumFrames
200.000000	200.000000	4	62	mm	200.000000	837	1116
Frame#	Time	FHD			LBHD			RBHD			C7			T10			CLAV			LSHO			LUUPA			LMUPA			LDUPA			LLEP			LMEP			LRAD			LUL			LRFIN			RSHO			RUPA1			RMUPA			RDUPA			RLEP			RMEP			RRAD			RUL			RUFIN			LASI			RASI			USACR			LSACR			RSACR			LTHI1			LTHI2			LTHI3			LTHI4			LLFC			LMFC			LTIB1			LTIB2			LTIB3			LTIB4			LLMAL			LMMAL			LHEE			LMT1			LMT2			LMT5			RTHI			RTHI2			RTHI3			RTHI4			RLFC			RMFC			RTIB1			RTIB2			RTIB3			RTIB4			RLMAL			RMMAL			RHEE			RMT1			RMT2			RMT5			*61			
		X1	Y1	Z1	X2	Y2	Z2	X3	Y3	Z3	X4	Y4	Z4	X5	Y5	Z5	X6	Y6	Z6	X7	Y7	Z7	X8	Y8	Z8	X9	Y9	Z9	X10	Y10	Z10	X11	Y11	Z11	X12	Y12	Z12	X13	Y13	Z13	X14	Y14	Z14	X15	Y15	Z15	X16	Y16	Z16	X17	Y17	Z17	X18	Y18	Z18	X19	Y19	Z19	X20	Y20	Z20	X21	Y21	Z21	X22	Y22	Z22	X23	Y23	Z23	X24	Y24	Z24	X25	Y25	Z25	X26	Y26	Z26	X27	Y27	Z27	X28	Y28	Z28	X29	Y29	Z29	X30	Y30	Z30	X31	Y31	Z31	X32	Y32	Z32	X33	Y33	Z33	X34	Y34	Z34	X35	Y35	Z35	X36	Y36	Z36	X37	Y37	Z37	X38	Y38	Z38	X39	Y39	Z39	X40	Y40	Z40	X41	Y41	Z41	X42	Y42	Z42	X43	Y43	Z43	X44	Y44	Z44	X45	Y45	Z45	X46	Y46	Z46	X47	Y47	Z47	X48	Y48	Z48	X49	Y49	Z49	X50	Y50	Z50	X51	Y51	Z51	X52	Y52	Z52	X53	Y53	Z53	X54	Y54	Z54	X55	Y55	Z55	X56	Y56	Z56	X57	Y57	Z57	X58	Y58	Z58	X59	Y59	Z59	X60	Y60	Z60	X61	Y61	Z61	X62	Y62	Z62	

838	4.185	-229.0676727294922	1764.070678710938	-1140.135131835938	-356.6240844726563	1727.510620117188	-1185.672973632813	-416.7989196777345	1693.60546875	-1056.239501953125	-422.8305664062501	1553.195678710938	-1105.725830078125	-402.0681152343751	1231.381591796875	-1101.48095703125	-284.8894958496094	1507.20458984375	-1111.36669921875	-343.2591857910157	1558.472900390625	-1254.00634765625	-173.8138885498047	1525.662475585938	-1320.084838867188	-147.7714233398438	1541.269287109375	-1280.963500976563	-104.7245254516602	1519.16552734375	-1317.313110351563	-45.90385055541993	1497.481811523438	-1313.553100585938	-54.46096420288087	1441.486938476563	-1280.703979492188	207.9068908691407	1522.475708007813	-1171.714111328125	221.1274566650391	1545.508178710938	-1245.494995117188	291.7886657714844	1547.1591796875	-1152.610717773438	-321.1231079101563	1540.459106445313	-965.8114013671877	-153.2523040771485	1484.390014648438	-902.6463012695315	-128.2803649902344	1511.552124023438	-934.8570556640627	-84.5460662841797	1475.0263671875	-912.5798950195315	-23.72847557067871	1472.627563476563	-928.799743652344	-33.89332580566407	1417.896728515625	-981.1250610351565	219.6541137695313	1552.765747070313	-1078.95703125	236.5080718994141	1530.041625976563	-1006.796447753906	320.7497558593751	1557.665161132813	-1077.48095703125	-197.8001098632813	1077.663696289063	-1208.337646484375	-192.6963806152344	1090.602905273438	-976.4854736328127	-384.9398193359376	1101.730590820313	-1084.617797851563	-387.7649536132814	1071.7626953125	-1110.394165039063	-385.9795227050782	1073.01806640625	-1054.03662109375	-307.9279479980469	808.5380859375002	-1233.249389648438	-266.0013732910157	734.9182128906251	-1239.00634765625	-220.7238922119141	741.2695922851564	-1247.544311523438	-283.3919372558594	681.3873291015626	-1219.482421875	-258.9781799316407	549.8847656250001	-1201.987426757813	-243.3090057373047	541.5382690429689	-1071.453125	-243.8473052978516	325.4344482421876	-1140.460693359375	-321.2872314453126	294.4033813476563	-1169.378662109375	-280.1134338378907	281.6069641113282	-1158.904296875	-277.3621215820313	206.6601562500001	-1114.584106445313	-355.3561096191407	128.2066955566407	-1109.397827148438	-313.6814880371094	145.0210876464844	-1034.230834960938	-414.1997375488282	98.62087249755862	-1051.083740234375	-199.7897491455079	57.66688156127931	-1051.353637695313	-205.8091583251954	48.9703826904297	-1097.106811523438	-261.8593139648438	34.8043556213379	-1138.984008789063	-198.3203430175782	817.769226074219	-892.5916748046877	-151.0968627929688	771.3034667968752	-899.2232055664065	-120.2664947509766	780.559753417969	-906.8675537109377	-162.5881805419922	689.5543212890626	-912.594421386719	-120.8959579467774	560.5048828125001	-924.5688476562502	-110.7091979980469	557.9948120117189	-1058.73779296875	-8.670102119445803	404.2552490234376	-946.2496337890627	-48.39283370971681	305.4960021972657	-928.619079589844	-4.467914581298829	318.4736328125001	-934.4043579101565	31.28499221801759	283.1557617187501	-966.7380371093752	23.21348762512207	158.25732421875	-951.641052246094	43.17353057861329	182.5239868164063	-1035.777709960938	-18.07254409790039	100.0024108886719	-1013.370056152344	198.1562500000001	151.0052185058594	-1004.774169921875	190.8033447265625	151.3695220947266	-965.3317871093752	153.9277648925782	113.2788543701172	-918.709655761719	nan	nan	nan	
839	4.19	-229.1303863525391	1764.181030273438	-1140.288818359375	-356.6189270019532	1727.463012695313	-1185.783447265625	-416.8347778320314	1693.676391601563	-1056.355346679688	-422.9124145507814	1553.15966796875	-1105.802001953125	-401.9920959472657	1231.361206054688	-1101.371948242188	-284.8939819335938	1507.22412109375	-1111.36474609375	-343.3128356933594	1558.397094726563	-1254.060668945313	-173.9007263183594	1525.597290039063	-1320.179931640625	-147.8361206054688	1541.150390625	-1281.01123046875	-104.767578125	1519.116577148438	-1317.429931640625	-45.95920562744141	1497.321166992188	-1313.717895507813	-54.65835571289064	1441.338134765625	-1280.731567382813	207.5495910644532	1522.355834960938	-1171.75830078125	221.1025085449219	1545.277099609375	-1245.612548828125	291.6694946289063	1546.982666015625	-1152.711547851563	-321.1710510253907	1540.548095703125	-965.800720214844	-153.2587585449219	1484.339965820313	-902.687438964844	-128.2858123779297	1511.627685546875	-934.853942871094	-84.59951019287111	1475.2255859375	-912.7254638671877	-24.00375175476075	1471.80224609375	-928.9061279296877	-33.96474075317384	1417.898071289063	-981.2150878906252	219.5747985839844	1552.82275390625	-1079.061279296875	236.4746551513672	1529.906127929688	-1006.9365234375	320.6535644531251	1557.783569335938	-1077.609130859375	-197.6963653564454	1077.671630859375	-1208.302978515625	-192.5630798339844	1090.624145507813	-976.451843261719	-384.835174560547	1101.772705078125	-1084.560668945313	-387.6577758789064	1071.828247070313	-1110.350708007813	-385.9010009765626	1073.085571289063	-1054	-307.8690185546876	808.488464355469	-1233.191528320313	-265.9962463378907	735.0017700195314	-1239.062866210938	-221.1983489990235	741.6351318359376	-1247.77001953125	-283.3704833984376	681.4412841796876	-1219.494140625	-258.8923339843751	549.8907470703126	-1202.028442382813	-242.9804077148438	541.4507446289064	-1071.508666992188	-243.7737884521485	325.2914428710938	-1140.51123046875	-321.1505432128907	294.4306030273438	-1169.430419921875	-280.1874694824219	282.4307556152344	-1159.076171875	-277.2255554199219	206.5296325683594	-1114.7197265625	-355.2367248535157	128.2037811279297	-1109.46484375	-313.6597595214844	145.0394287109375	-1034.325805664063	-414.2275695800782	98.65625762939456	-1051.146362304688	-199.7034606933594	57.56867980957033	-1051.419311523438	-206.2845611572266	48.20766830444337	-1097.334228515625	-261.8368530273438	34.75219345092774	-1138.933959960938	-198.2577362060547	817.786804199219	-892.494812011719	-151.02734375	771.3462524414065	-899.1286621093752	-120.195068359375	780.5693969726565	-906.846862792969	-162.5486297607422	689.5232543945314	-912.505554199219	-120.9287033081055	560.4824218750001	-924.4377441406252	-110.2511672973633	557.9020385742189	-1058.478515625	-8.534523010253908	404.2226562500001	-945.9841308593752	-48.20849990844728	305.5529174804688	-928.3457031250002	-4.202479839324952	318.6219482421876	-934.2151489257815	31.40398788452149	283.3180236816407	-966.4366455078127	23.5900936126709	158.1817321777344	-951.4050292968752	43.52923583984376	182.3957977294922	-1035.720825195313	-17.29265785217286	100.0169448852539	-1013.382446289063	198.6614685058594	151.0960845947266	-1004.277465820313	191.1481170654297	151.5237426757813	-964.6978149414065	154.3355407714844	113.4204025268555	-918.2188720703127	nan	nan	nan	
840	4.195	-228.9937896728516	1764.071411132813	-1140.37451171875	-356.5410156250001	1727.419311523438	-1185.877319335938	-416.8745117187501	1693.830932617188	-1056.4326171875	-422.8331909179689	1553.11328125	-1105.84130859375	-401.9063110351564	1231.310180664063	-1101.346557617188	-284.8779296875001	1507.23291015625	-1111.464721679688	-343.3515930175782	1558.352294921875	-1254.128173828125	-174.0020141601563	1525.510864257813	-1320.229736328125	-148.0103302001953	1541.083374023438	-1281.084350585938	-104.8885803222657	1519.003173828125	-1317.557373046875	-46.05600357055665	1497.248901367188	-1313.77783203125	-54.73313522338869	1441.190307617188	-1280.81103515625	207.3651733398438	1522.19873046875	-1171.849487304688	221.087387084961	1545.21142578125	-1245.800659179688	291.4771728515626	1546.796264648438	-1152.799072265625	-321.1692810058594	1540.5400390625	-965.9056396484377	-153.3298645019532	1484.2998046875	-902.7453613281252	-128.3187713623047	1511.599243164063	-934.8529052734377	-84.64369964599611	1475.213012695313	-912.753112792969	-23.94968414306641	1471.79443359375	-929.0139770507815	-33.95842742919923	1417.877807617188	-981.3151855468752	219.4855651855469	1552.798706054688	-1079.210327148438	236.5246582031251	1529.923217773438	-1007.065368652344	320.5911560058594	1557.734252929688	-1077.818725585938	-197.6217041015626	1077.772094726563	-1208.2529296875	-192.467758178711	1090.623291015625	-976.4296875000002	-384.727508544922	1101.82763671875	-1084.5390625	-387.5685119628907	1071.892211914063	-1110.316772460938	-385.7959289550782	1073.15771484375	-1053.938842773438	-307.7766113281251	808.5086059570315	-1233.120971679688	-265.9927062988282	735.1043090820314	-1239.078247070313	-221.1264953613282	741.7006225585939	-1247.76953125	-283.2306518554688	681.4215087890626	-1219.487915039063	-258.8214416503907	549.9568481445314	-1202.048828125	-242.8730010986329	541.4307250976564	-1071.567016601563	-243.7361602783204	325.3225402832032	-1140.6142578125	-321.1487121582032	294.4959716796876	-1169.434204101563	-280.5929565429688	281.7365722656251	-1159.285278320313	-277.1577453613282	206.5268096923829	-1114.790161132813	-355.3022766113282	128.278793334961	-1109.614379882813	-313.6032409667969	145.0711059570313	-1034.427612304688	-414.1936340332032	98.66395568847659	-1051.189331054688	-199.6950073242188	57.687557220459	-1051.4482421875	-206.2246093750001	48.22997283935548	-1097.31396484375	-261.9218139648438	34.81722640991212	-1139.081176757813	-198.2662200927735	817.761901855469	-892.445983886719	-150.9752502441407	771.3833007812502	-899.079772949219	-120.0759048461914	780.582458496094	-906.7514648437502	-162.5379791259766	689.5977172851564	-912.457214355469	-120.7825622558594	560.5348510742189	-924.3450317382815	-110.0435638427735	557.9365234375001	-1058.435913085938	-8.325374603271486	404.4776916503907	-945.7566528320315	-47.83694076538087	305.0596008300782	-927.8521118164065	-4.027374267578126	318.6103515625001	-933.9924926757815	31.75768470764161	283.4074707031251	-966.1391601562502	23.91266632080078	158.2642517089844	-951.054382324219	43.85750198364259	182.1790771484375	-1035.620971679688	-16.83909034729004	99.78104400634768	-1013.204284667969	198.9119873046876	151.4517211914063	-1004.033203125	191.5328521728516	151.7364654541016	-964.256774902344	154.4718933105469	113.7759475708008	-917.7739257812502	nan	nan	nan	
841	4.2	-229.0566711425782	1764.031127929688	-1140.434448242188	-356.5851135253907	1727.414916992188	-1185.99658203125	-416.9500732421876	1693.938232421875	-1056.520141601563	-422.8108825683595	1553.148193359375	-1105.87109375	-401.8477478027345	1231.337036132813	-1101.26611328125	-284.8867797851563	1507.260131835938	-1111.473754882813	-343.4210205078126	1558.273559570313	-1254.18017578125	-174.1038208007813	1525.426879882813	-1320.273315429688	-148.0391845703125	1540.976318359375	-1281.191040039063	-104.9227752685547	1518.942138671875	-1317.644775390625	-46.08656311035157	1497.164306640625	-1313.928955078125	-54.72096633911134	1441.075317382813	-1281.096313476563	207.1865234375001	1522.1279296875	-1171.9541015625	220.9892120361329	1545.05322265625	-1245.908081054688	291.4127197265626	1546.62890625	-1152.89501953125	-321.2512817382813	1540.572631835938	-965.9470825195315	-153.33203125	1484.228515625	-902.6947021484377	-128.3108062744141	1511.606323242188	-934.8564453125002	-84.80083465576173	1474.531372070313	-912.5303955078127	-23.81356239318848	1472.478393554688	-928.9865722656252	-33.99236297607423	1417.865600585938	-981.425964355469	219.4322662353516	1552.739013671875	-1079.317749023438	236.5482330322266	1529.971923828125	-1007.189697265625	320.5988159179688	1557.732788085938	-1077.960571289063	-197.4775695800782	1077.786865234375	-1208.195556640625	-192.3325653076172	1090.646606445313	-976.3474121093752	-384.6206665039064	1101.872680664063	-1084.41650390625	-387.4781799316407	1071.963623046875	-1110.269897460938	-385.5997314453126	1073.134033203125	-1053.9375	-307.6957397460938	808.5294189453127	-1233.082153320313	-265.9081420898438	735.0440063476564	-1239.059936523438	-221.1046752929688	741.7044067382814	-1247.84814453125	-283.1407470703126	681.4249877929689	-1219.47265625	-258.6481323242188	549.9364624023439	-1202.024291992188	-242.7104187011719	541.4260864257814	-1071.534301757813	-243.6929016113282	325.2740478515626	-1140.546997070313	-321.0636291503907	294.5487976074219	-1169.518676757813	-280.5279846191407	281.7851562500001	-1159.296142578125	-277.1397705078126	206.5349884033204	-1114.831787109375	-355.2943725585938	128.3116149902344	-1109.734985351563	-313.6648559570313	145.1371612548828	-1034.515258789063	-414.184295654297	98.700553894043	-1051.190795898438	-199.6996002197266	57.66276168823244	-1051.467041015625	-206.3033752441407	48.16221237182619	-1097.352783203125	-261.8202514648438	34.69985961914063	-1139.061889648438	-198.1630554199219	817.7871704101565	-892.4626464843752	-150.9592437744141	771.381530761719	-899.0136718750002	-119.9478530883789	780.7479248046877	-906.6113891601565	-162.4785461425782	689.6312866210939	-912.4293212890627	-120.6177368164063	560.5724487304689	-924.285827636719	-110.2978744506836	557.9804687500001	-1058.453491210938	-8.099839210510256	404.494354248047	-945.5561523437502	-47.44660186767579	305.2555847167969	-927.780700683594	-3.808512687683106	318.6472778320313	-933.7187500000002	31.96512985229493	283.6267395019532	-965.9393310546877	24.25032615661622	158.4001770019532	-950.879821777344	44.28337097167969	182.3112487792969	-1035.352294921875	-16.63854408264161	99.89813995361331	-1012.903564453125	199.2183990478516	151.4530639648438	-1003.729125976563	191.8843994140625	151.8629913330078	-963.7836914062502	154.6899108886719	114.0863647460938	-917.2852783203127	nan	nan	nan	
